<mxfile host="www.draw.io" modified="2019-11-01T16:37:59.030Z" agent="Mozilla/5.0 (Windows NT 10.0; Win64; x64) AppleWebKit/537.36 (KHTML, like Gecko) Chrome/78.0.3904.87 Safari/537.36" etag="XNTmcvJn0k0S359-pN_d" version="12.1.9" type="github" pages="1">
  <diagram name="Page-1" id="9361dd3d-8414-5efd-6122-117bd74ce7a7">
    <mxGraphModel dx="2260" dy="1182" grid="1" gridSize="10" guides="1" tooltips="1" connect="1" arrows="1" fold="1" page="0" pageScale="1.5" pageWidth="826" pageHeight="1169" background="#ffffff" math="0" shadow="0">
      <root>
        <mxCell id="0"/>
        <mxCell id="1" parent="0"/>
        <mxCell id="2" value="" style="fillColor=#CC4125;strokeColor=#660000" parent="1" vertex="1">
          <mxGeometry x="-20" y="150" width="10" height="130" as="geometry"/>
        </mxCell>
        <mxCell id="4" value="User" style="shadow=1;fillColor=#A2C4C9;strokeColor=none" parent="1" vertex="1">
          <mxGeometry x="-67.5" y="60" width="105" height="50" as="geometry"/>
        </mxCell>
        <mxCell id="6" value="" style="fillColor=#CC4125;strokeColor=#660000" parent="1" vertex="1">
          <mxGeometry x="343" y="180" width="10" height="150" as="geometry"/>
        </mxCell>
        <mxCell id="7" value="Browser" style="shadow=1;fillColor=#A2C4C9;strokeColor=none" parent="1" vertex="1">
          <mxGeometry x="295" y="60" width="105" height="50" as="geometry"/>
        </mxCell>
        <mxCell id="8" value="" style="edgeStyle=none;endArrow=none;dashed=1" parent="1" source="7" target="6" edge="1">
          <mxGeometry x="272.3350694444445" y="165" width="100" height="100" as="geometry">
            <mxPoint x="347.2588734567901" y="110" as="sourcePoint"/>
            <mxPoint x="347.5761959876544" y="165" as="targetPoint"/>
          </mxGeometry>
        </mxCell>
        <mxCell id="9" value="Opens" style="edgeStyle=none;verticalLabelPosition=top;verticalAlign=bottom;exitX=1.25;exitY=0.21;exitDx=0;exitDy=0;exitPerimeter=0;" parent="1" source="2" edge="1">
          <mxGeometry x="220" y="92" width="100" height="100" as="geometry">
            <mxPoint x="210" y="179.5" as="sourcePoint"/>
            <mxPoint x="340" y="179.5" as="targetPoint"/>
          </mxGeometry>
        </mxCell>
        <mxCell id="11" value="" style="edgeStyle=none;verticalLabelPosition=top;verticalAlign=bottom;endArrow=none;startArrow=classic;dashed=1;entryX=0.117;entryY=0.954;entryDx=0;entryDy=0;entryPerimeter=0;exitX=1;exitY=0.5;exitDx=0;exitDy=0;" parent="1" source="5X_q3c67HsRAWSv5Rtwp-100" target="6" edge="1">
          <mxGeometry x="220" y="172.25887345679013" width="100" height="100" as="geometry">
            <mxPoint x="200" y="260" as="sourcePoint"/>
            <mxPoint x="340" y="259.7588734567901" as="targetPoint"/>
          </mxGeometry>
        </mxCell>
        <mxCell id="13" value="Browse" style="edgeStyle=none;verticalLabelPosition=top;verticalAlign=bottom;dashed=1;" parent="1" edge="1">
          <mxGeometry x="385.45524691358025" y="113.91550925925924" width="100" height="100" as="geometry">
            <mxPoint x="352.5" y="201.20563271604937" as="sourcePoint"/>
            <mxPoint x="617" y="201" as="targetPoint"/>
          </mxGeometry>
        </mxCell>
        <mxCell id="22" value="Website 1" style="shadow=1;fillColor=#A2C4C9;strokeColor=none" parent="1" vertex="1">
          <mxGeometry x="572.5" y="60" width="105" height="50" as="geometry"/>
        </mxCell>
        <mxCell id="23" value="" style="edgeStyle=none;endArrow=none;dashed=1" parent="1" source="5X_q3c67HsRAWSv5Rtwp-89" edge="1">
          <mxGeometry x="564.4878472222224" y="174.99999999999997" width="100" height="100" as="geometry">
            <mxPoint x="624.6527777777778" y="110" as="sourcePoint"/>
            <mxPoint x="625" y="269.3942901234568" as="targetPoint"/>
          </mxGeometry>
        </mxCell>
        <mxCell id="24" value="Google Pixel service" style="shadow=1;fillColor=#A2C4C9;strokeColor=none" parent="1" vertex="1">
          <mxGeometry x="737.5" y="60" width="130" height="50" as="geometry"/>
        </mxCell>
        <mxCell id="25" value="" style="edgeStyle=none;endArrow=none;dashed=1" parent="1" source="5X_q3c67HsRAWSv5Rtwp-95" edge="1">
          <mxGeometry x="727.3350694444446" y="165" width="100" height="100" as="geometry">
            <mxPoint x="802.2588734567901" y="110" as="sourcePoint"/>
            <mxPoint x="802.2995762646337" y="289.3942901234568" as="targetPoint"/>
          </mxGeometry>
        </mxCell>
        <mxCell id="30" value="Website 2" style="shadow=1;fillColor=#A2C4C9;strokeColor=none" parent="1" vertex="1">
          <mxGeometry x="952.5" y="60" width="105" height="50" as="geometry"/>
        </mxCell>
        <mxCell id="33" value="" style="edgeStyle=elbowEdgeStyle;elbow=horizontal;endArrow=none;dashed=1" parent="1" source="4" target="2" edge="1">
          <mxGeometry x="10.000000000000028" y="310" width="100" height="100" as="geometry">
            <mxPoint x="10.000000000000028" y="410" as="sourcePoint"/>
            <mxPoint x="110" y="310" as="targetPoint"/>
          </mxGeometry>
        </mxCell>
        <mxCell id="5X_q3c67HsRAWSv5Rtwp-115" style="edgeStyle=orthogonalEdgeStyle;rounded=0;orthogonalLoop=1;jettySize=auto;html=1;entryX=0;entryY=0.5;entryDx=0;entryDy=0;" parent="1" source="42" target="5X_q3c67HsRAWSv5Rtwp-114" edge="1">
          <mxGeometry relative="1" as="geometry"/>
        </mxCell>
        <mxCell id="5X_q3c67HsRAWSv5Rtwp-116" value="Navigate to website 2" style="text;html=1;resizable=0;points=[];align=center;verticalAlign=middle;labelBackgroundColor=#ffffff;" parent="5X_q3c67HsRAWSv5Rtwp-115" vertex="1" connectable="0">
          <mxGeometry x="0.0024" y="-118" relative="1" as="geometry">
            <mxPoint x="-76.5" y="-118" as="offset"/>
          </mxGeometry>
        </mxCell>
        <mxCell id="42" value="" style="fillColor=#CC4125;strokeColor=#660000" parent="1" vertex="1">
          <mxGeometry x="-20" y="360" width="10" height="220" as="geometry"/>
        </mxCell>
        <mxCell id="44" value="" style="edgeStyle=none;dashed=1;endArrow=none" parent="1" source="2" target="42" edge="1">
          <mxGeometry x="-170" y="300" width="100" height="100" as="geometry">
            <mxPoint x="-170" y="400" as="sourcePoint"/>
            <mxPoint x="-70" y="300" as="targetPoint"/>
          </mxGeometry>
        </mxCell>
        <mxCell id="50" value="" style="edgeStyle=none;endArrow=none;dashed=1" parent="1" source="5X_q3c67HsRAWSv5Rtwp-119" edge="1">
          <mxGeometry x="956.5711805555559" y="205" width="100" height="100" as="geometry">
            <mxPoint x="1031.7361111111113" y="150" as="sourcePoint"/>
            <mxPoint x="1004.9999999999995" y="468.3333333333335" as="targetPoint"/>
          </mxGeometry>
        </mxCell>
        <mxCell id="52" value="" style="edgeStyle=none;endArrow=none;dashed=1" parent="1" source="6" edge="1">
          <mxGeometry x="376.5711805555559" y="339.6971450617284" width="100" height="100" as="geometry">
            <mxPoint x="451.7361111111112" y="284.6971450617284" as="sourcePoint"/>
            <mxPoint x="347.50000000000045" y="464.1666666666665" as="targetPoint"/>
          </mxGeometry>
        </mxCell>
        <mxCell id="64" value="&lt;&lt;service&gt;&gt;&#xa;:GimqService" style="shadow=1;fillColor=#A2C4C9;strokeColor=none" parent="1" vertex="1">
          <mxGeometry x="1302.5" y="60" width="105" height="50" as="geometry"/>
        </mxCell>
        <mxCell id="65" value="" style="edgeStyle=none;endArrow=none;dashed=1" parent="1" source="64" edge="1">
          <mxGeometry x="1174.0711805555559" y="210" width="100" height="100" as="geometry">
            <mxPoint x="1222.5" y="115" as="sourcePoint"/>
            <mxPoint x="1354.9999999999995" y="539.9999999999998" as="targetPoint"/>
          </mxGeometry>
        </mxCell>
        <mxCell id="5X_q3c67HsRAWSv5Rtwp-112" style="edgeStyle=orthogonalEdgeStyle;rounded=0;orthogonalLoop=1;jettySize=auto;html=1;" parent="1" source="5X_q3c67HsRAWSv5Rtwp-89" edge="1">
          <mxGeometry relative="1" as="geometry">
            <mxPoint x="790" y="275" as="targetPoint"/>
          </mxGeometry>
        </mxCell>
        <mxCell id="5X_q3c67HsRAWSv5Rtwp-113" value="Ask for a cookie" style="text;html=1;resizable=0;points=[];align=center;verticalAlign=middle;labelBackgroundColor=#ffffff;" parent="5X_q3c67HsRAWSv5Rtwp-112" vertex="1" connectable="0">
          <mxGeometry x="-0.1146" y="-1" relative="1" as="geometry">
            <mxPoint as="offset"/>
          </mxGeometry>
        </mxCell>
        <mxCell id="5X_q3c67HsRAWSv5Rtwp-89" value="" style="fillColor=#CC4125;strokeColor=#660000" parent="1" vertex="1">
          <mxGeometry x="620" y="160" width="10" height="230" as="geometry"/>
        </mxCell>
        <mxCell id="5X_q3c67HsRAWSv5Rtwp-91" value="" style="edgeStyle=none;endArrow=none;dashed=1" parent="1" source="22" edge="1">
          <mxGeometry x="564.4878472222224" y="174.99999999999997" width="100" height="100" as="geometry">
            <mxPoint x="625" y="110" as="sourcePoint"/>
            <mxPoint x="625" y="600" as="targetPoint"/>
          </mxGeometry>
        </mxCell>
        <mxCell id="5X_q3c67HsRAWSv5Rtwp-92" value="Google Pixel snippet" style="rounded=1;fontStyle=1;fillColor=#FFD966;strokeColor=none" parent="1" vertex="1">
          <mxGeometry x="640" y="229" width="130" height="30" as="geometry"/>
        </mxCell>
        <mxCell id="5X_q3c67HsRAWSv5Rtwp-109" style="edgeStyle=orthogonalEdgeStyle;rounded=0;orthogonalLoop=1;jettySize=auto;html=1;" parent="1" source="5X_q3c67HsRAWSv5Rtwp-95" edge="1">
          <mxGeometry relative="1" as="geometry">
            <mxPoint x="360" y="294.5" as="targetPoint"/>
          </mxGeometry>
        </mxCell>
        <mxCell id="5X_q3c67HsRAWSv5Rtwp-111" value="Drops a cookie" style="text;html=1;resizable=0;points=[];align=center;verticalAlign=middle;labelBackgroundColor=#ffffff;" parent="5X_q3c67HsRAWSv5Rtwp-109" vertex="1" connectable="0">
          <mxGeometry x="-0.7468" y="-3" relative="1" as="geometry">
            <mxPoint as="offset"/>
          </mxGeometry>
        </mxCell>
        <mxCell id="5X_q3c67HsRAWSv5Rtwp-95" value="" style="fillColor=#CC4125;strokeColor=#660000" parent="1" vertex="1">
          <mxGeometry x="797" y="229" width="10" height="131" as="geometry"/>
        </mxCell>
        <mxCell id="5X_q3c67HsRAWSv5Rtwp-96" value="" style="edgeStyle=none;endArrow=none;dashed=1" parent="1" source="24" target="5X_q3c67HsRAWSv5Rtwp-95" edge="1">
          <mxGeometry x="727.3350694444446" y="165" width="100" height="100" as="geometry">
            <mxPoint x="802.5" y="110" as="sourcePoint"/>
            <mxPoint x="802.5" y="289.3942901234568" as="targetPoint"/>
          </mxGeometry>
        </mxCell>
        <mxCell id="5X_q3c67HsRAWSv5Rtwp-100" value="" style="fillColor=#CC4125;strokeColor=#660000" parent="1" vertex="1">
          <mxGeometry x="170" y="260" width="10" height="130" as="geometry"/>
        </mxCell>
        <mxCell id="5X_q3c67HsRAWSv5Rtwp-102" value="Local Storage" style="shadow=1;fillColor=#A2C4C9;strokeColor=none" parent="1" vertex="1">
          <mxGeometry x="122.5" y="190" width="105" height="50" as="geometry"/>
        </mxCell>
        <mxCell id="5X_q3c67HsRAWSv5Rtwp-104" value="" style="edgeStyle=elbowEdgeStyle;elbow=horizontal;endArrow=none;dashed=1" parent="1" source="5X_q3c67HsRAWSv5Rtwp-102" target="5X_q3c67HsRAWSv5Rtwp-100" edge="1">
          <mxGeometry x="200.00000000000003" y="440" width="100" height="100" as="geometry">
            <mxPoint x="200.00000000000003" y="540" as="sourcePoint"/>
            <mxPoint x="300" y="440" as="targetPoint"/>
          </mxGeometry>
        </mxCell>
        <mxCell id="5X_q3c67HsRAWSv5Rtwp-105" value="" style="edgeStyle=none;dashed=1;endArrow=none" parent="1" source="5X_q3c67HsRAWSv5Rtwp-100" edge="1">
          <mxGeometry x="20" y="430" width="100" height="100" as="geometry">
            <mxPoint x="20" y="530" as="sourcePoint"/>
            <mxPoint x="175" y="440" as="targetPoint"/>
          </mxGeometry>
        </mxCell>
        <mxCell id="5X_q3c67HsRAWSv5Rtwp-118" style="edgeStyle=orthogonalEdgeStyle;rounded=0;orthogonalLoop=1;jettySize=auto;html=1;entryX=0.167;entryY=0.69;entryDx=0;entryDy=0;entryPerimeter=0;" parent="1" source="5X_q3c67HsRAWSv5Rtwp-114" target="5X_q3c67HsRAWSv5Rtwp-119" edge="1">
          <mxGeometry relative="1" as="geometry">
            <mxPoint x="1000" y="470" as="targetPoint"/>
            <Array as="points">
              <mxPoint x="660" y="497"/>
              <mxPoint x="660" y="497"/>
            </Array>
          </mxGeometry>
        </mxCell>
        <mxCell id="5X_q3c67HsRAWSv5Rtwp-121" value="Browse" style="text;html=1;resizable=0;points=[];align=center;verticalAlign=middle;labelBackgroundColor=#ffffff;" parent="5X_q3c67HsRAWSv5Rtwp-118" vertex="1" connectable="0">
          <mxGeometry x="0.9451" y="622" relative="1" as="geometry">
            <mxPoint x="12" y="2" as="offset"/>
          </mxGeometry>
        </mxCell>
        <mxCell id="uAN8EF6FxyaKF_mwR1QY-65" value="Browse" style="text;html=1;resizable=0;points=[];align=center;verticalAlign=middle;labelBackgroundColor=#ffffff;" vertex="1" connectable="0" parent="5X_q3c67HsRAWSv5Rtwp-118">
          <mxGeometry x="-0.0531" y="-194" relative="1" as="geometry">
            <mxPoint x="-194" y="-192" as="offset"/>
          </mxGeometry>
        </mxCell>
        <mxCell id="5X_q3c67HsRAWSv5Rtwp-114" value="" style="fillColor=#CC4125;strokeColor=#660000" parent="1" vertex="1">
          <mxGeometry x="342.5" y="395" width="10" height="150" as="geometry"/>
        </mxCell>
        <mxCell id="5X_q3c67HsRAWSv5Rtwp-117" value="" style="fillColor=#CC4125;strokeColor=#660000" parent="1" vertex="1">
          <mxGeometry x="620" y="430" width="10" height="131" as="geometry"/>
        </mxCell>
        <mxCell id="5X_q3c67HsRAWSv5Rtwp-119" value="" style="fillColor=#CC4125;strokeColor=#660000" parent="1" vertex="1">
          <mxGeometry x="1000" y="380" width="10" height="170" as="geometry"/>
        </mxCell>
        <mxCell id="5X_q3c67HsRAWSv5Rtwp-120" value="" style="edgeStyle=none;endArrow=none;dashed=1" parent="1" source="30" edge="1">
          <mxGeometry x="956.5711805555559" y="205" width="100" height="100" as="geometry">
            <mxPoint x="1005" y="109.99999999999989" as="sourcePoint"/>
            <mxPoint x="1005" y="760" as="targetPoint"/>
          </mxGeometry>
        </mxCell>
        <mxCell id="uAN8EF6FxyaKF_mwR1QY-73" style="edgeStyle=orthogonalEdgeStyle;rounded=0;orthogonalLoop=1;jettySize=auto;html=1;exitX=0;exitY=0.25;exitDx=0;exitDy=0;entryX=0.9;entryY=0.091;entryDx=0;entryDy=0;entryPerimeter=0;" edge="1" parent="1" source="uAN8EF6FxyaKF_mwR1QY-66" target="uAN8EF6FxyaKF_mwR1QY-67">
          <mxGeometry relative="1" as="geometry">
            <Array as="points">
              <mxPoint x="1000" y="630"/>
            </Array>
          </mxGeometry>
        </mxCell>
        <mxCell id="uAN8EF6FxyaKF_mwR1QY-74" value="Submit (webpage+ad snippet)" style="text;html=1;resizable=0;points=[];align=center;verticalAlign=middle;labelBackgroundColor=#ffffff;" vertex="1" connectable="0" parent="uAN8EF6FxyaKF_mwR1QY-73">
          <mxGeometry x="-0.7665" y="-3" relative="1" as="geometry">
            <mxPoint as="offset"/>
          </mxGeometry>
        </mxCell>
        <mxCell id="uAN8EF6FxyaKF_mwR1QY-66" value="" style="fillColor=#CC4125;strokeColor=#660000" vertex="1" parent="1">
          <mxGeometry x="1000" y="570" width="10" height="170" as="geometry"/>
        </mxCell>
        <mxCell id="uAN8EF6FxyaKF_mwR1QY-67" value="" style="fillColor=#CC4125;strokeColor=#660000" vertex="1" parent="1">
          <mxGeometry x="-20" y="610" width="10" height="220" as="geometry"/>
        </mxCell>
      </root>
    </mxGraphModel>
  </diagram>
</mxfile>
